<svg xmlns="http://www.w3.org/2000/svg" width="52" height="40" viewBox="0 0 52 40" fill="#B58352">
  <metadata><?xpacket begin="﻿" id="W5M0MpCehiHzreSzNTczkc9d"?>
<x:xmpmeta xmlns:x="adobe:ns:meta/" x:xmptk="Adobe XMP Core 5.6-c138 79.159824, 2016/09/14-01:09:01        ">
   <rdf:RDF xmlns:rdf="http://www.w3.org/1999/02/22-rdf-syntax-ns#">
      <rdf:Description rdf:about=""/>
   </rdf:RDF>
</x:xmpmeta>                                                                                              
<?xpacket end="w"?></metadata>
  <path id="book-book-svg" d="M734.473,920c-5,0-10.294.849-12.479,2.672-2.185-1.823-7.479-2.672-12.479-2.672C703.006,920,696,921.436,696,924.59v34.4A1.021,1.021,0,0,0,697.035,960a1.209,1.209,0,0,0,.121-0.007h24.717l0.016,0c0.034,0,.069,0,0.105,0s0.07,0,.1,0l0.017,0h24.716a1.209,1.209,0,0,0,.121.007,1.02,1.02,0,0,0,1.035-1.006v-34.4C747.988,921.436,740.982,920,734.473,920Zm-35.048,37.982a11.37,11.37,0,0,1,1.567-.56,36.568,36.568,0,0,1,17.045,0,11.37,11.37,0,0,1,1.567.56H699.425Zm21.533-1.586c-2.561-1.356-7.115-1.992-11.443-1.992s-8.883.636-11.444,1.992v-31.8c0-.145.518-0.882,2.913-1.57a36.565,36.565,0,0,1,17.061,0c2.4,0.688,2.913,1.425,2.913,1.57v31.8Zm3.425,1.586a11.341,11.341,0,0,1,1.568-.56,36.563,36.563,0,0,1,17.044,0,11.39,11.39,0,0,1,1.568.56h-20.18Zm21.533-1.586c-2.561-1.356-7.115-1.992-11.443-1.992s-8.882.636-11.444,1.992v-31.8c0-.145.519-0.882,2.913-1.57a36.565,36.565,0,0,1,17.061,0c2.395,0.688,2.913,1.425,2.913,1.57v31.8Zm-39.48-28.647c1-.074,2.035-0.113,3.079-0.113a33.968,33.968,0,0,1,7.972.859,1.067,1.067,0,0,0,.261.033,1.031,1.031,0,0,0,1-.753,1,1,0,0,0-.742-1.227,36.124,36.124,0,0,0-8.494-.923c-1.1,0-2.186.04-3.238,0.119a1.016,1.016,0,0,0-.953,1.08A1.027,1.027,0,0,0,706.436,927.748Zm-5.155.779a1.067,1.067,0,0,0,.261-0.033c0.464-.117.963-0.224,1.484-0.319a1.009,1.009,0,0,0,.827-1.174,1.036,1.036,0,0,0-1.209-.8c-0.568.105-1.114,0.222-1.623,0.35a1,1,0,0,0-.742,1.227A1.032,1.032,0,0,0,701.281,928.527Zm16.727,3.222a39.54,39.54,0,0,0-16.987,0,1,1,0,0,0-.742,1.227,1.039,1.039,0,0,0,1.263.72,37.426,37.426,0,0,1,15.945,0,1.071,1.071,0,0,0,.261.032,1.03,1.03,0,0,0,1-.752A1,1,0,0,0,718.008,931.749Zm0,5.2a39.5,39.5,0,0,0-16.987,0,1,1,0,0,0-.742,1.226,1.038,1.038,0,0,0,1.263.72,37.426,37.426,0,0,1,15.945,0,1.044,1.044,0,0,0,1.263-.72A1,1,0,0,0,718.008,936.949ZM701.542,944.1a37.426,37.426,0,0,1,15.945,0,1.067,1.067,0,0,0,.261.033,1.033,1.033,0,0,0,1-.753,1,1,0,0,0-.742-1.227,39.54,39.54,0,0,0-16.987,0,1,1,0,0,0-.742,1.227A1.039,1.039,0,0,0,701.542,944.1Zm16.466,3.255a39.54,39.54,0,0,0-16.987,0,1,1,0,0,0-.742,1.227,1.039,1.039,0,0,0,1.263.72,37.426,37.426,0,0,1,15.945,0,1.073,1.073,0,0,0,.261.033,1.032,1.032,0,0,0,1-.753A1,1,0,0,0,718.008,947.352Zm8.492-18.858a37.426,37.426,0,0,1,15.945,0,1.075,1.075,0,0,0,.262.033,1.03,1.03,0,0,0,1-.753,1,1,0,0,0-.742-1.227,39.54,39.54,0,0,0-16.987,0,1,1,0,0,0-.742,1.227A1.038,1.038,0,0,0,726.5,928.494Zm16.467,3.255a39.545,39.545,0,0,0-16.988,0,1,1,0,0,0-.742,1.227,1.039,1.039,0,0,0,1.263.72,37.426,37.426,0,0,1,15.945,0,1.044,1.044,0,0,0,1.263-.72A1,1,0,0,0,742.967,931.749Zm0,5.2a39.5,39.5,0,0,0-16.988,0,1,1,0,0,0-.742,1.226,1.038,1.038,0,0,0,1.263.72,37.426,37.426,0,0,1,15.945,0,1.044,1.044,0,0,0,1.263-.72A1,1,0,0,0,742.967,936.949ZM726.5,944.1a37.426,37.426,0,0,1,15.945,0,1.073,1.073,0,0,0,.261.033,1.032,1.032,0,0,0,1-.753,1,1,0,0,0-.741-1.227,39.545,39.545,0,0,0-16.988,0,1,1,0,0,0-.742,1.227A1.039,1.039,0,0,0,726.5,944.1Zm16.467,3.255a39.545,39.545,0,0,0-16.988,0,1,1,0,0,0-.742,1.227,1.039,1.039,0,0,0,1.263.72,37.426,37.426,0,0,1,15.945,0,1.075,1.075,0,0,0,.262.033,1.032,1.032,0,0,0,1-.753A1,1,0,0,0,742.967,947.352Z" transform="translate(-696 -920)"/>
</svg>
