<svg xmlns="http://www.w3.org/2000/svg" width="52" height="40" viewBox="0 0 52 40" fill="#B58352">
  <metadata><?xpacket begin="﻿" id="W5M0MpCehiHzreSzNTczkc9d"?>
<x:xmpmeta xmlns:x="adobe:ns:meta/" x:xmptk="Adobe XMP Core 5.6-c138 79.159824, 2016/09/14-01:09:01        ">
   <rdf:RDF xmlns:rdf="http://www.w3.org/1999/02/22-rdf-syntax-ns#">
      <rdf:Description rdf:about=""/>
   </rdf:RDF>
</x:xmpmeta>                     
<?xpacket end="w"?></metadata>
  <path id="book-books-svg" d="M1049.96,946.169h-4.66V926.914a1.047,1.047,0,0,0-1.03-1.064h-5.39v-3.4a1.049,1.049,0,0,0-1.04-1.064h-6.42a1.047,1.047,0,0,0-1.03,1.064v7.447h-4.35v-4.681a1.055,1.055,0,0,0-1.04-1.064h-5.39v-3.085a1.047,1.047,0,0,0-1.03-1.064h-6.42a1.049,1.049,0,0,0-1.04,1.064v3.085h-5.39a1.047,1.047,0,0,0-1.03,1.064v20.957h-4.66a1.052,1.052,0,0,0-1.04,1.064v3.831a1.051,1.051,0,0,0,1.04,1.063h4.35v6.808a1.035,1.035,0,1,0,2.07,0v-6.808h43.5a1.048,1.048,0,0,0,1.04-1.063v-3.831A1.049,1.049,0,0,0,1049.96,946.169Zm-11.08-18.191h4.35v18.191h-4.35V927.978Zm-6.42-4.468h4.35v22.659h-4.35V923.51Zm-6.42,8.51h4.35v14.149h-4.35V932.02Zm-6.43-5.744h4.35v19.893h-4.35V926.276Zm-6.42-4.149h4.35v24.042h-4.35V922.127Zm-6.42,4.149h4.35v19.893h-4.35V926.276ZM1048.93,950h-47.86v-1.7h47.86V950Zm-4.35,3.617a1.055,1.055,0,0,0-1.04,1.064v4.255a1.035,1.035,0,1,0,2.07,0V954.68A1.046,1.046,0,0,0,1044.58,953.616Zm-35.64-25.425a1.046,1.046,0,0,0-1.03,1.063v0.958a1.035,1.035,0,1,0,2.07,0v-0.958A1.048,1.048,0,0,0,1008.94,928.191Zm0,4.787a1.046,1.046,0,0,0-1.03,1.064v9.574a1.035,1.035,0,1,0,2.07,0v-9.574A1.048,1.048,0,0,0,1008.94,932.978Zm19.27,0.745a1.046,1.046,0,0,0-1.03,1.064v0.588a1.035,1.035,0,1,0,2.07,0v-0.588A1.055,1.055,0,0,0,1028.21,933.723Zm0,4.255a1.046,1.046,0,0,0-1.03,1.064v4.574a1.035,1.035,0,1,0,2.07,0v-4.574A1.055,1.055,0,0,0,1028.21,937.978Z" transform="translate(-999 -920)"/>
</svg>
