<svg xmlns="http://www.w3.org/2000/svg" width="40" height="40" viewBox="0 0 40 40" fill="#B58352">
  <metadata><?xpacket begin="﻿" id="W5M0MpCehiHzreSzNTczkc9d"?>
<x:xmpmeta xmlns:x="adobe:ns:meta/" x:xmptk="Adobe XMP Core 5.6-c138 79.159824, 2016/09/14-01:09:01        ">
   <rdf:RDF xmlns:rdf="http://www.w3.org/1999/02/22-rdf-syntax-ns#">
      <rdf:Description rdf:about=""/>
   </rdf:RDF>
</x:xmpmeta>                         
<?xpacket end="w"?></metadata>
  <path id="book-pencil-svg" d="M438.029,922.549l-1.577-1.578a3.321,3.321,0,0,0-4.695,0l-1.195,1.2-0.156-.156a0.8,0.8,0,0,0-1.127,0l-25.327,25.327h0a0.793,0.793,0,0,0-.173.256l-2.319,5.556-2.4,5.746a0.8,0.8,0,0,0,1.042,1.043l5.747-2.4h0l5.555-2.319a0.8,0.8,0,0,0,.256-0.173h0l25.328-25.327a0.8,0.8,0,0,0,0-1.127l-0.156-.156,1.194-1.194A3.324,3.324,0,0,0,438.029,922.549ZM401.28,957.72l1.194-2.861,1.666,1.667Zm4.45-1.858-2.593-2.592,1.656-3.965,4.9,4.9Zm5.37-2.5-5.458-5.457L427.3,926.239l5.458,5.458Zm22.788-22.787-5.458-5.457,1.413-1.413,5.457,5.457Zm3.014-4.453-1.183,1.182-4.018-4.018,1.183-1.183a1.727,1.727,0,0,1,2.441,0l1.577,1.578A1.728,1.728,0,0,1,436.9,926.117Zm-17.563,9.77-11.524,11.524a0.8,0.8,0,0,0,1.127,1.128l11.524-11.525A0.8,0.8,0,1,0,419.339,935.887Zm3.586-3.585-1.451,1.451a0.8,0.8,0,0,0,1.127,1.127l1.451-1.451A0.8,0.8,0,1,0,422.925,932.3Z" transform="translate(-399 -920)"/>
</svg>
