<svg xmlns="http://www.w3.org/2000/svg" width="60" height="40" viewBox="0 0 60 40" fill="#B58352">
  <metadata><?xpacket begin="﻿" id="W5M0MpCehiHzreSzNTczkc9d"?>
<x:xmpmeta xmlns:x="adobe:ns:meta/" x:xmptk="Adobe XMP Core 5.6-c138 79.159824, 2016/09/14-01:09:01        ">
   <rdf:RDF xmlns:rdf="http://www.w3.org/1999/02/22-rdf-syntax-ns#">
      <rdf:Description rdf:about=""/>
   </rdf:RDF>
</x:xmpmeta>                      
<?xpacket end="w"?></metadata>
  <path id="book-laptop-svg" d="M1356.8,951.283h-3.02v-30.09a1.2,1.2,0,0,0-1.2-1.194h-49.16a1.2,1.2,0,0,0-1.2,1.194v30.09h-3.02a1.2,1.2,0,0,0-1.2,1.194,7.536,7.536,0,0,0,7.53,7.522h44.94a7.536,7.536,0,0,0,7.53-7.522A1.2,1.2,0,0,0,1356.8,951.283Zm-52.19-28.9h46.78v28.9H1349V925.968a1.2,1.2,0,0,0-1.2-1.193h-39.6a1.2,1.2,0,0,0-1.2,1.193v25.315h-2.39v-28.9Zm42,28.9h-37.22V927.162h37.22v24.121h0Zm3.86,6.328h-44.94a5.15,5.15,0,0,1-5-3.941h54.94A5.15,5.15,0,0,1,1350.47,957.611Zm-38.29-26.627h11.6a1.195,1.195,0,0,0,0-2.389h-11.6A1.195,1.195,0,0,0,1312.18,930.984Zm15.42,0h1.91a1.195,1.195,0,1,0,0-2.389h-1.91A1.195,1.195,0,0,0,1327.6,930.984Z" transform="translate(-1298 -920)"/>
</svg>
